# xmcd
#
# Track frame offsets:
#	300
#	24975
#	39150
#	61268
#	76340
#	95615
#	113833
#	133183
#	151333
#	166108
#	179083
#	194983
#	208858
#	225880
#	244030
#	263755
#
# Disc length: 3760 seconds
#
# Revision: 1
# Processed by: cddbd v1.5.2PL0 Copyright (c) Steve Scherf et al.
# Submitted via: audiograbber 1.83.01
#
DISCID=d40eac10
DTITLE=Various Artist - All Country Karaoke Vol 2
DYEAR=1900
DGENRE=Country
TTITLE0=Brad Paisley - Welcome To The Future
TTITLE1=Josh Thompson - Beer On The Table
TTITLE2=Taylor Swift - Fifteen
TTITLE3=Jason Aldean - Big Green Tractor
TTITLE4=Zac Brown Band - Toes
TTITLE5=David Neil - Red Light
TTITLE6=Martina McBride - I Just Call You Mine
TTITLE7=Darius Rucker - Alright
TTITLE8=Kenny Chesney - Out Last Night
TTITLE9=Randy Houser - Boots On
TTITLE10=Chris Young - Gettin'  You Home
TTITLE11=Jake Owen - Don't Think I Can't Love you
TTITLE12=Keith Urban - Sweet Thing
TTITLE13=Blake Shelton - I'll Just Hold On
TTITLE14=Taylor Swift - Breathe
TTITLE15=Jimmy Wayne - I'll Be That
EXTD=
EXTT0=Karaoke
EXTT1=Karaoke
EXTT2=Karaoke
EXTT3=Karaoke
EXTT4=Karaoke
EXTT5=Karaoke
EXTT6=Karaoke
EXTT7=Karaoke
EXTT8=Karaoke
EXTT9=Karaoke
EXTT10=Karaoke
EXTT11=Karaoke
EXTT12=Karaoke
EXTT13=
EXTT14=Karaoke
EXTT15=Karaoke
PLAYORDER=
